<?xml version="1.0" encoding="UTF-8"?><svg xmlns="http://www.w3.org/2000/svg" viewBox="0 0 1920 1080"><rect width="1920" height="1080" style="fill:#fff;"/><g id="Layer_1"><text/><path d="M994.48,295.77c10.6,11.27-38.95,119.9-54.46,120.63-11.27.34-86.72-69.14-81.28-72.9,4.78-13.07,60.82,3.29,74.09,39.15-2.49-22.05,42.52-100.13,61.65-86.88Z"/><path d="M902.21,498.72c18.93,1.66,7.87-30.97-2.15-44.98,23.05,19.27,43.69,16.21,42.33,5.5,2.58-4.63-62.06-47.05-70.19-42.49-11.09,6.44,18.05,78.39,30.01,81.98Z"/><path d="M951.97,453.08c6.84,17.73,31.27-6.57,39.44-21.73-7.15,29.18,4.68,46.36,13.7,40.43,5.3.28,14.91-76.44,7.25-81.73-10.67-7.12-62.44,50.72-60.39,63.04Z"/><path d="M910.99,567.53c11.79-14.9-21.54-23.59-38.76-22.93,28.77-8.67,37.55-27.59,27.86-32.34-2.45-4.71-73.41,25.99-74.08,35.29-.71,12.8,75.41,28,84.98,19.98Z"/><path d="M972.74,586.72c-7.9-17.28-30.81,8.45-38.06,24.08,5.37-29.56-7.48-45.99-16.12-39.52-5.3.04-10.26,77.2-2.29,82.02,11.08,6.46,59.25-54.41,56.46-66.58Z"/><path d="M1022.83,544.29c-18.91-1.8-8.1,30.91,1.81,45-22.91-19.44-43.57-16.53-42.29-5.81-2.62,4.61,61.71,47.5,69.88,43.01,11.13-6.36-17.47-78.52-29.4-82.2Z"/><path d="M1017.7,477.12c-11.81,14.89,21.51,23.62,38.73,22.98-28.78,8.64-37.59,27.55-27.9,32.31,2.44,4.71,73.44-25.9,74.12-35.2.72-12.8-75.38-28.1-84.96-20.09Z"/><path d="M777.47,396.89c14.63-5.04,93.3,84.78,87.6,99.22-4.32,10.42-98.67,50.65-99.86,44.14-9.95-9.73,27.99-54.09,66.14-51.46-21.12-6.79-73.81-79.91-53.88-91.9Z"/><path d="M754.58,602.61c5.55-14.45,124.92-16.98,132.31-3.33,5.2,10.01-24.63,108.14-30.37,104.87-13.85,1.37-23.44-56.22,3.09-83.74-18.78,11.81-108.66,5.17-105.03-17.8Z"/><path d="M926.88,738.03c-9.73-12.03,47.78-116.66,63.3-116.23,11.27.5,81.32,75.42,75.62,78.76-5.75,12.68-60.4-7.82-70.97-44.57.84,22.17-49.87,96.68-67.95,82.04Z"/><path d="M1173.92,439.3c-5.22,14.57-124.51,19.77-132.21,6.28-5.43-9.89,22.21-108.66,28.02-105.52,13.82-1.68,24.69,55.68-1.22,83.79,18.51-12.23,108.52-7.6,105.41,15.45Z"/><path d="M1136.66,654.11c-15.06,3.54-84.33-93.71-77.2-107.5,5.34-9.93,103.25-40.5,103.78-33.91,8.93,10.68-33.28,51.01-70.97,44.57,20.33,8.87,65.42,86.91,44.39,96.84Z"/></g></svg>