<svg id="visual" viewBox="0 0 900 600" width="900" height="600" xmlns="http://www.w3.org/2000/svg" xmlns:xlink="http://www.w3.org/1999/xlink" version="1.1"><rect x="0" y="0" width="900" height="600" fill="#bbff00"></rect><defs><linearGradient id="grad1_0" x1="33.3%" y1="0%" x2="100%" y2="100%"><stop offset="20%" stop-color="#3ceafa" stop-opacity="1"></stop><stop offset="80%" stop-color="#3ceafa" stop-opacity="1"></stop></linearGradient></defs><defs><linearGradient id="grad1_1" x1="33.3%" y1="0%" x2="100%" y2="100%"><stop offset="20%" stop-color="#3ceafa" stop-opacity="1"></stop><stop offset="80%" stop-color="#00fad7" stop-opacity="1"></stop></linearGradient></defs><defs><linearGradient id="grad1_2" x1="33.3%" y1="0%" x2="100%" y2="100%"><stop offset="20%" stop-color="#4dff8d" stop-opacity="1"></stop><stop offset="80%" stop-color="#00fad7" stop-opacity="1"></stop></linearGradient></defs><defs><linearGradient id="grad1_3" x1="33.3%" y1="0%" x2="100%" y2="100%"><stop offset="20%" stop-color="#4dff8d" stop-opacity="1"></stop><stop offset="80%" stop-color="#bbff00" stop-opacity="1"></stop></linearGradient></defs><defs><linearGradient id="grad2_0" x1="0%" y1="0%" x2="66.7%" y2="100%"><stop offset="20%" stop-color="#3ceafa" stop-opacity="1"></stop><stop offset="80%" stop-color="#3ceafa" stop-opacity="1"></stop></linearGradient></defs><defs><linearGradient id="grad2_1" x1="0%" y1="0%" x2="66.7%" y2="100%"><stop offset="20%" stop-color="#00fad7" stop-opacity="1"></stop><stop offset="80%" stop-color="#3ceafa" stop-opacity="1"></stop></linearGradient></defs><defs><linearGradient id="grad2_2" x1="0%" y1="0%" x2="66.7%" y2="100%"><stop offset="20%" stop-color="#00fad7" stop-opacity="1"></stop><stop offset="80%" stop-color="#4dff8d" stop-opacity="1"></stop></linearGradient></defs><defs><linearGradient id="grad2_3" x1="0%" y1="0%" x2="66.7%" y2="100%"><stop offset="20%" stop-color="#bbff00" stop-opacity="1"></stop><stop offset="80%" stop-color="#4dff8d" stop-opacity="1"></stop></linearGradient></defs><g transform="translate(900, 0)"><path d="M0 486.7C-54.9 449.5 -109.8 412.2 -158.4 382.5C-207.1 352.8 -249.4 330.7 -301.9 301.9C-354.5 273.2 -417.2 237.7 -449.7 186.3C-482.2 134.8 -484.5 67.4 -486.7 0L0 0Z" fill="#87ff5c"></path><path d="M0 365.1C-41.2 337.1 -82.4 309.1 -118.8 286.9C-155.3 264.6 -187 248 -226.5 226.5C-265.9 204.9 -312.9 178.3 -337.3 139.7C-361.6 101.1 -363.4 50.6 -365.1 0L0 0Z" fill="#00ffb6"></path><path d="M0 243.4C-27.5 224.7 -54.9 206.1 -79.2 191.2C-103.5 176.4 -124.7 165.4 -151 151C-177.2 136.6 -208.6 118.9 -224.8 93.1C-241.1 67.4 -242.2 33.7 -243.4 0L0 0Z" fill="#00f3ee"></path><path d="M0 121.7C-13.7 112.4 -27.5 103 -39.6 95.6C-51.8 88.2 -62.3 82.7 -75.5 75.5C-88.6 68.3 -104.3 59.4 -112.4 46.6C-120.5 33.7 -121.1 16.9 -121.7 0L0 0Z" fill="#3ceafa"></path></g><g transform="translate(0, 600)"><path d="M0 -486.7C56.3 -457.5 112.6 -428.3 167.2 -403.7C221.9 -379.2 274.9 -359.4 325.3 -325.3C375.6 -291.2 423.2 -242.9 449.7 -186.3C476.2 -129.7 481.5 -64.8 486.7 0L0 0Z" fill="#87ff5c"></path><path d="M0 -365.1C42.2 -343.1 84.4 -321.2 125.4 -302.8C166.4 -284.4 206.2 -269.5 244 -244C281.7 -218.4 317.4 -182.1 337.3 -139.7C357.1 -97.3 361.1 -48.6 365.1 0L0 0Z" fill="#00ffb6"></path><path d="M0 -243.4C28.1 -228.8 56.3 -214.1 83.6 -201.9C110.9 -189.6 137.5 -179.7 162.6 -162.6C187.8 -145.6 211.6 -121.4 224.8 -93.1C238.1 -64.8 240.7 -32.4 243.4 0L0 0Z" fill="#00f3ee"></path><path d="M0 -121.7C14.1 -114.4 28.1 -107.1 41.8 -100.9C55.5 -94.8 68.7 -89.8 81.3 -81.3C93.9 -72.8 105.8 -60.7 112.4 -46.6C119 -32.4 120.4 -16.2 121.7 0L0 0Z" fill="#3ceafa"></path></g></svg>