<?xml version="1.0" encoding="UTF-8"?><svg xmlns="http://www.w3.org/2000/svg" viewBox="0 0 1920 1080"><rect width="1920" height="1080" style="fill:#fff;"/><g id="Layer_1"><text/><path d="M1001.61,104.03c21.53,20.25-66.06,227.18-96.16,229.75-21.89,1.52-174.17-122.55-163.9-129.99,8.25-24.81,118.51,1.44,147.2,67.45-6.61-41.02,74.6-190.49,112.85-167.21Z"/><path d="M838.58,490.62c36.93,1.64,12.81-58.5-7.8-83.94,46.38,34.24,86.25,26.92,82.74,7,4.65-8.86-124.45-83.15-139.89-74-21.03,12.91,41.41,145.16,64.95,150.94Z"/><path d="M931.64,401.43c14.73,32.61,60.26-14.7,74.94-43.69-11.55,55.12,12.84,86.32,29.89,74.52,10.32.11,22.84-144.06,7.5-153.37-21.31-12.48-117.3,99.67-112.33,122.54Z"/><path d="M859.06,621.28c21.01-30.19-42.71-44.78-75.19-42.17,53.63-19.22,68.62-57.09,49.9-65.7-5.03-9.07-136.52,56.65-136.99,74.98-.25,25.23,144.87,49.39,162.28,32.9Z"/><path d="M982.78,649.69c-16.76-31.69-59.23,18.18-72.05,47.97,8.06-55.69-18.25-85.41-34.53-72.64-10.31.49-13.72,145.12,2.17,153.52,22.06,11.21,110.81-106.31,104.41-128.85Z"/><path d="M1076.76,566.47c-36.92-1.9-13.26,58.41,7.15,83.99-46.11-34.57-86.04-27.53-82.68-7.59-4.72,8.83,123.81,84.03,139.32,75,21.13-12.76-40.29-145.45-63.79-151.4Z"/><path d="M1061.37,441.3c-21.76,28.74,43.73,42.49,77.16,39.96-55.26,18.37-70.86,54.41-51.63,62.56,5.13,8.61,140.7-54.12,141.27-71.55.38-23.99-148.81-46.69-166.79-30.97Z"/><path d="M587.85,309.91c28.04-10.55,188.24,151.26,178.3,178.71-7.56,19.81-187.75,102.34-190.59,90.27-20.14-17.43,50.07-103.3,124.44-101.33-41.61-11.06-149.94-143.68-112.16-167.65Z"/><path d="M559.92,696.3c9.62-27.44,241.5-41.43,256.98-16.47,10.93,18.3-39.16,204.08-50.6,198.42-26.82,3.63-50.11-103.28-.73-156.8-35.56,23.54-210.84,18.1-205.64-25.14Z"/><path d="M905.83,936.12c-19.9-21.73,83.49-221.81,113.71-222.22,21.95.06,164.18,134.69,153.36,141.38-10.15,24.15-118.07-9.94-141.56-77.82,3.41,41.38-89.17,184.61-125.51,158.66Z"/><path d="M1362.05,358.47c-8.98,27.64-240.47,46.61-256.53,21.98-11.35-18.07,34.42-204.87,45.98-199.46,26.73-4.21,52.5,102.18,4.37,156.75,35-24.3,210.36-22.62,206.18,20.72Z"/><path d="M1306.92,762.97c-29,7.79-171.51-168.65-158.77-195.01,9.59-18.99,197.48-83.71,199.04-71.44,18.22,19.28-60.59,97.96-134.38,88.82,40.25,15.02,134.2,157.41,94.11,177.62Z"/></g></svg>