<svg id="visual" viewBox="0 0 900 600" width="900" height="600" xmlns="http://www.w3.org/2000/svg" xmlns:xlink="http://www.w3.org/1999/xlink" version="1.1"><rect x="0" y="0" width="900" height="600" fill="#4e4bd0"></rect><path d="M0 382L21.5 382.8C43 383.7 86 385.3 128.8 385.2C171.7 385 214.3 383 257.2 383.8C300 384.7 343 388.3 385.8 394C428.7 399.7 471.3 407.3 514.2 401.2C557 395 600 375 642.8 364.3C685.7 353.7 728.3 352.3 771.2 358.7C814 365 857 379 878.5 386L900 393L900 601L878.5 601C857 601 814 601 771.2 601C728.3 601 685.7 601 642.8 601C600 601 557 601 514.2 601C471.3 601 428.7 601 385.8 601C343 601 300 601 257.2 601C214.3 601 171.7 601 128.8 601C86 601 43 601 21.5 601L0 601Z" fill="#69faf4"></path><path d="M0 444L21.5 446.8C43 449.7 86 455.3 128.8 460.5C171.7 465.7 214.3 470.3 257.2 467.8C300 465.3 343 455.7 385.8 443.5C428.7 431.3 471.3 416.7 514.2 415.5C557 414.3 600 426.7 642.8 427.3C685.7 428 728.3 417 771.2 421C814 425 857 444 878.5 453.5L900 463L900 601L878.5 601C857 601 814 601 771.2 601C728.3 601 685.7 601 642.8 601C600 601 557 601 514.2 601C471.3 601 428.7 601 385.8 601C343 601 300 601 257.2 601C214.3 601 171.7 601 128.8 601C86 601 43 601 21.5 601L0 601Z" fill="#00d3ff"></path><path d="M0 448L21.5 448.2C43 448.3 86 448.7 128.8 450.3C171.7 452 214.3 455 257.2 462C300 469 343 480 385.8 479.5C428.7 479 471.3 467 514.2 458C557 449 600 443 642.8 450.8C685.7 458.7 728.3 480.3 771.2 487C814 493.7 857 485.3 878.5 481.2L900 477L900 601L878.5 601C857 601 814 601 771.2 601C728.3 601 685.7 601 642.8 601C600 601 557 601 514.2 601C471.3 601 428.7 601 385.8 601C343 601 300 601 257.2 601C214.3 601 171.7 601 128.8 601C86 601 43 601 21.5 601L0 601Z" fill="#00a3ff"></path><path d="M0 493L21.5 501C43 509 86 525 128.8 523.3C171.7 521.7 214.3 502.3 257.2 494C300 485.7 343 488.3 385.8 494.7C428.7 501 471.3 511 514.2 514C557 517 600 513 642.8 515.3C685.7 517.7 728.3 526.3 771.2 529.7C814 533 857 531 878.5 530L900 529L900 601L878.5 601C857 601 814 601 771.2 601C728.3 601 685.7 601 642.8 601C600 601 557 601 514.2 601C471.3 601 428.7 601 385.8 601C343 601 300 601 257.2 601C214.3 601 171.7 601 128.8 601C86 601 43 601 21.5 601L0 601Z" fill="#006ced"></path><path d="M0 570L21.5 569.7C43 569.3 86 568.7 128.8 563.8C171.7 559 214.3 550 257.2 545.5C300 541 343 541 385.8 540.7C428.7 540.3 471.3 539.7 514.2 545.2C557 550.7 600 562.3 642.8 560C685.7 557.7 728.3 541.3 771.2 538C814 534.7 857 544.3 878.5 549.2L900 554L900 601L878.5 601C857 601 814 601 771.2 601C728.3 601 685.7 601 642.8 601C600 601 557 601 514.2 601C471.3 601 428.7 601 385.8 601C343 601 300 601 257.2 601C214.3 601 171.7 601 128.8 601C86 601 43 601 21.5 601L0 601Z" fill="#2426c7"></path></svg>