<svg id="visual" viewBox="0 0 900 600" width="900" height="600" xmlns="http://www.w3.org/2000/svg" xmlns:xlink="http://www.w3.org/1999/xlink" version="1.1"><rect x="0" y="0" width="900" height="600" fill="#d3a0cc"></rect><path d="M0 324L64 324L64 233L129 233L129 417L193 417L193 448L257 448L257 194L321 194L321 337L386 337L386 468L450 468L450 291L514 291L514 365L579 365L579 429L643 429L643 288L707 288L707 274L771 274L771 337L836 337L836 453L900 453L900 282L900 601L900 601L836 601L836 601L771 601L771 601L707 601L707 601L643 601L643 601L579 601L579 601L514 601L514 601L450 601L450 601L386 601L386 601L321 601L321 601L257 601L257 601L193 601L193 601L129 601L129 601L64 601L64 601L0 601Z" fill="#e400ff" stroke-linecap="square" stroke-linejoin="miter"></path></svg>