<svg id="visual" viewBox="0 0 900 600" width="900" height="600" xmlns="http://www.w3.org/2000/svg" xmlns:xlink="http://www.w3.org/1999/xlink" version="1.1"><rect x="0" y="0" width="900" height="600" fill="#170226"></rect><path d="M0 346L129 346L129 283L257 283L257 304L386 304L386 346L514 346L514 266L643 266L643 337L771 337L771 274L900 274L900 380L900 601L900 601L771 601L771 601L643 601L643 601L514 601L514 601L386 601L386 601L257 601L257 601L129 601L129 601L0 601Z" fill="#9900ff"></path><path d="M0 391L129 391L129 408L257 408L257 390L386 390L386 435L514 435L514 357L643 357L643 362L771 362L771 446L900 446L900 418L900 601L900 601L771 601L771 601L643 601L643 601L514 601L514 601L386 601L386 601L257 601L257 601L129 601L129 601L0 601Z" fill="#7600c5"></path><path d="M0 521L129 521L129 450L257 450L257 461L386 461L386 446L514 446L514 527L643 527L643 522L771 522L771 470L900 470L900 487L900 601L900 601L771 601L771 601L643 601L643 601L514 601L514 601L386 601L386 601L257 601L257 601L129 601L129 601L0 601Z" fill="#55008f"></path></svg>