<svg id="visual" viewBox="0 0 900 600" width="900" height="600" xmlns="http://www.w3.org/2000/svg" xmlns:xlink="http://www.w3.org/1999/xlink" version="1.1"><path d="M0 85L82 85L82 43L164 43L164 61L245 61L245 79L327 79L327 43L409 43L409 91L491 91L491 79L573 79L573 109L655 109L655 49L736 49L736 103L818 103L818 61L900 61L900 79L900 0L900 0L818 0L818 0L736 0L736 0L655 0L655 0L573 0L573 0L491 0L491 0L409 0L409 0L327 0L327 0L245 0L245 0L164 0L164 0L82 0L82 0L0 0Z" fill="#c11cc9"></path><path d="M0 157L82 157L82 139L164 139L164 163L245 163L245 127L327 127L327 103L409 103L409 145L491 145L491 121L573 121L573 169L655 169L655 91L736 91L736 157L818 157L818 157L900 157L900 157L900 77L900 59L818 59L818 101L736 101L736 47L655 47L655 107L573 107L573 77L491 77L491 89L409 89L409 41L327 41L327 77L245 77L245 59L164 59L164 41L82 41L82 83L0 83Z" fill="#c606a9"></path><path d="M0 313L82 313L82 289L164 289L164 217L245 217L245 259L327 259L327 169L409 169L409 307L491 307L491 199L573 199L573 241L655 241L655 241L736 241L736 253L818 253L818 295L900 295L900 229L900 155L900 155L818 155L818 155L736 155L736 89L655 89L655 167L573 167L573 119L491 119L491 143L409 143L409 101L327 101L327 125L245 125L245 161L164 161L164 137L82 137L82 155L0 155Z" fill="#c3048c"></path><path d="M0 493L82 493L82 493L164 493L164 475L245 475L245 427L327 427L327 277L409 277L409 499L491 499L491 391L573 391L573 409L655 409L655 439L736 439L736 415L818 415L818 433L900 433L900 493L900 227L900 293L818 293L818 251L736 251L736 239L655 239L655 239L573 239L573 197L491 197L491 305L409 305L409 167L327 167L327 257L245 257L245 215L164 215L164 287L82 287L82 311L0 311Z" fill="#bb1473"></path><path d="M0 601L82 601L82 601L164 601L164 601L245 601L245 601L327 601L327 601L409 601L409 601L491 601L491 601L573 601L573 601L655 601L655 601L736 601L736 601L818 601L818 601L900 601L900 601L900 491L900 431L818 431L818 413L736 413L736 437L655 437L655 407L573 407L573 389L491 389L491 497L409 497L409 275L327 275L327 425L245 425L245 473L164 473L164 491L82 491L82 491L0 491Z" fill="#b0235f"></path></svg>